<?xml version="1.0" encoding="iso-8859-1"?>
<!-- Generator: Adobe Illustrator 19.0.0, SVG Export Plug-In . SVG Version: 6.00 Build 0)  -->
<svg version="1.1" id="Capa_1" xmlns="http://www.w3.org/2000/svg" xmlns:xlink="http://www.w3.org/1999/xlink" x="0px" y="0px"
	 viewBox="0 0 512 512" style="enable-background:new 0 0 512 512;" xml:space="preserve">
<g>
	<path style="fill:#1FB571;" d="M432.614,223.173L288.81,79.369c-6.591-6.59-19.13-4.836-27.864,3.898l0,0
		c-8.734,8.735-10.489,21.274-3.898,27.865l143.803,143.803c6.592,6.591,19.131,4.837,27.865-3.898l0,0
		C437.45,242.304,439.204,229.765,432.614,223.173z"/>
	<path style="fill:#FFCE34;" d="M271.476,361.882L150.101,240.508c-5.563-5.563-17.262-2.969-25.996,5.767l0,0
		c-8.734,8.734-11.33,20.434-5.767,25.996l121.375,121.374c5.563,5.564,17.261,2.969,25.995-5.767l0,0
		C274.444,379.143,277.039,367.445,271.476,361.882z"/>
	<path style="fill:#A44F38;" d="M487.491,81.752l-57.26-57.26c-19.302-19.302-50.888-19.302-70.189,0l0,0
		c-19.303,19.303-19.303,50.888,0,70.19l57.26,57.26c19.302,19.303,50.888,19.303,70.189,0l0,0
		C506.794,132.64,506.794,101.055,487.491,81.752z"/>
	<path style="fill:#FD4A4A;" d="M487.491,81.752l-57.26-57.26C417.31,11.57,398.884,7.3,382.324,11.679
		c-4.379,16.561-0.108,34.986,12.812,47.907l57.26,57.26c12.921,12.921,31.347,17.19,47.907,12.811
		C504.682,113.099,500.413,94.673,487.491,81.752z"/>
	<path style="fill:#A44F38;" d="M333.594,235.649l-57.26-57.26c-19.303-19.303-50.888-19.303-70.19,0l0,0
		c-19.302,19.303-19.302,50.889,0,70.19l57.259,57.26c19.303,19.303,50.888,19.303,70.19,0l0,0
		C352.896,286.538,352.896,254.952,333.594,235.649z"/>
	<path style="fill:#FD4A4A;" d="M333.594,235.649l-57.26-57.26c-12.921-12.921-31.347-17.191-47.907-12.812
		c-4.379,16.562-0.109,34.986,12.812,47.908l57.26,57.259c12.921,12.922,31.347,17.192,47.907,12.814
		C350.785,266.996,346.515,248.571,333.594,235.649z"/>
</g>
<path d="M494.562,74.681l-21.56-21.559l32.422-32.421c3.905-3.905,3.905-10.236,0-14.141c-3.906-3.905-10.235-3.905-14.142,0
	l-32.421,32.42l-21.559-21.56C426.078,6.196,411.104,0.015,395.137,0.015s-30.941,6.182-42.165,17.405
	c-23.251,23.251-23.251,61.081,0,84.332l21.559,21.56l-13.818,13.818L295.88,72.297c-4.463-4.462-10.663-6.92-17.461-6.92
	c-8.722,0-17.668,3.943-24.544,10.818c-12.655,12.656-14.403,31.5-3.898,42.006l64.831,64.831l-9.844,9.843l-21.56-21.56
	c-11.224-11.224-26.199-17.406-42.166-17.406s-30.941,6.182-42.165,17.406c-11.224,11.224-17.405,26.198-17.405,42.165
	s6.182,30.941,17.405,42.165l21.56,21.56l-9.843,9.843l-53.617-53.617c-3.779-3.779-9.089-5.86-14.953-5.86
	c-8.49,0-17.905,4.347-25.185,11.626c-12.87,12.871-15.403,30.501-5.767,40.137l53.617,53.616L2.929,494.914
	c-3.905,3.905-3.905,10.236,0,14.142c1.953,1.953,4.512,2.929,7.071,2.929s5.119-0.976,7.071-2.929l161.956-161.957l53.617,53.617
	c3.778,3.779,9.088,5.86,14.952,5.86c0,0,0,0,0.001,0c8.489,0,17.904-4.347,25.184-11.625c12.87-12.871,15.403-30.501,5.768-40.138
	l-53.617-53.617l9.843-9.843l21.559,21.56c11.224,11.224,26.199,17.406,42.166,17.406c15.966,0,30.941-6.182,42.165-17.406
	s17.405-26.198,17.405-42.165c0-15.967-6.182-30.942-17.405-42.166l-21.559-21.559l9.844-9.843l64.831,64.831
	c4.463,4.462,10.664,6.92,17.461,6.921c0.001,0,0.001,0,0.002,0c8.721,0,17.668-3.944,24.543-10.819
	c12.655-12.655,14.404-31.5,3.898-42.007l-64.831-64.83l13.818-13.818l21.559,21.559c11.224,11.224,26.198,17.406,42.165,17.406
	c15.967,0,30.941-6.182,42.165-17.406C517.812,135.762,517.812,97.932,494.562,74.681z M264.307,368.855
	c0.503,1.322-0.44,6.724-5.67,11.952c-3.985,3.985-8.417,5.769-11.042,5.769c-0.478,0-0.781-0.063-0.915-0.105l-60.577-60.577
	c-0.002-0.002-0.004-0.005-0.007-0.008c-0.002-0.002-0.005-0.004-0.008-0.007l-60.582-60.582c-0.502-1.322,0.44-6.724,5.67-11.952
	c3.985-3.985,8.417-5.769,11.043-5.769c0.478,0,0.781,0.064,0.915,0.105l53.513,53.514l-2.244,2.244
	c-3.905,3.905-3.905,10.236,0,14.142c1.953,1.953,4.512,2.929,7.071,2.929c2.559,0,5.119-0.976,7.071-2.929l2.244-2.244
	L264.307,368.855z M326.522,242.721c7.447,7.447,11.548,17.399,11.548,28.024s-4.102,20.578-11.548,28.023
	c-7.447,7.448-17.399,11.548-28.023,11.548c-10.625,0-20.578-4.101-28.024-11.548l-28.625-28.625
	c-0.001-0.001-0.003-0.003-0.004-0.005c-0.001-0.001-0.003-0.003-0.005-0.004l-28.626-28.626
	c-7.447-7.447-11.547-17.399-11.547-28.023c0-10.625,4.102-20.578,11.548-28.025c1.168-1.168,2.404-2.244,3.689-3.245
	c0.929,14.282,6.935,28.01,17.265,38.341l17.188,17.188c0.002,0.002,0.005,0.004,0.007,0.006l12.103,12.104
	c1.953,1.953,4.512,2.929,7.071,2.929s5.118-0.977,7.071-2.929c3.905-3.905,3.905-10.236,0-14.141l-12.104-12.104
	c-0.003-0.002-0.005-0.005-0.007-0.007l-17.188-17.188c-8.481-8.481-12.555-20.434-11.302-32.277
	c1.396-0.146,2.807-0.225,4.231-0.225c10.625,0,20.578,4.101,28.024,11.548l21.559,21.56l-4.593,4.593
	c-3.905,3.905-3.905,10.236,0,14.141c1.953,1.953,4.512,2.929,7.071,2.929s5.118-0.977,7.071-2.929l4.593-4.593L326.522,242.721z
	 M425.543,230.243c1.956,1.956,1.398,8.427-3.898,13.724c-3.061,3.061-7.047,4.962-10.402,4.962c-1.03,0-2.442-0.184-3.321-1.063
	L264.118,104.062c-1.956-1.956-1.398-8.427,3.897-13.724c3.062-3.06,7.048-4.961,10.403-4.961c1.03,0,2.442,0.185,3.32,1.063
	l64.832,64.831l-3.585,3.585c-3.905,3.905-3.905,10.236,0,14.142c1.953,1.953,4.512,2.929,7.071,2.929s5.118-0.976,7.071-2.929
	l3.585-3.585L425.543,230.243z M480.421,144.872c-7.447,7.447-17.398,11.547-28.023,11.547s-20.577-4.101-28.023-11.548
	l-57.26-57.26c-15.453-15.453-15.453-40.595,0-56.048c1.168-1.168,2.404-2.244,3.689-3.244c0.929,14.278,6.934,28.003,17.258,38.333
	c0.003,0.002,0.005,0.005,0.007,0.007l10.833,10.833l6.355,6.355c0.001,0.001,0.002,0.002,0.003,0.003l12.108,12.108
	c1.953,1.952,4.512,2.929,7.071,2.929s5.118-0.977,7.071-2.929c3.905-3.905,3.905-10.236,0-14.141l-29.3-29.299
	c-8.481-8.481-12.555-20.433-11.302-32.276c1.397-0.146,2.807-0.225,4.231-0.225c10.625,0,20.577,4.102,28.023,11.548l21.56,21.56
	l-4.371,4.371c-3.905,3.905-3.905,10.236,0,14.142c1.953,1.953,4.512,2.929,7.071,2.929c2.56,0,5.118-0.976,7.071-2.929l4.371-4.371
	l21.559,21.559C495.874,104.275,495.874,129.419,480.421,144.872z"/>
<path d="M452.072,102.38c-3.906-3.905-10.235-3.905-14.142,0c-3.905,3.905-3.905,10.236,0,14.141l0.336,0.336
	c1.953,1.953,4.512,2.929,7.071,2.929c2.56,0,5.118-0.977,7.071-2.929c3.905-3.905,3.905-10.236,0-14.141L452.072,102.38z"/>
<path d="M298.174,256.278c-3.906-3.905-10.235-3.905-14.142,0c-3.905,3.905-3.905,10.236,0,14.141l0.336,0.336
	c1.953,1.953,4.512,2.929,7.071,2.929c2.56,0,5.118-0.977,7.071-2.929c3.905-3.905,3.905-10.236,0-14.141L298.174,256.278z"/>
<g>
</g>
<g>
</g>
<g>
</g>
<g>
</g>
<g>
</g>
<g>
</g>
<g>
</g>
<g>
</g>
<g>
</g>
<g>
</g>
<g>
</g>
<g>
</g>
<g>
</g>
<g>
</g>
<g>
</g>
</svg>
