<?xml version="1.0" encoding="iso-8859-1"?>
<!-- Generator: Adobe Illustrator 19.0.0, SVG Export Plug-In . SVG Version: 6.00 Build 0)  -->
<svg version="1.1" id="Capa_1" xmlns="http://www.w3.org/2000/svg" xmlns:xlink="http://www.w3.org/1999/xlink" x="0px" y="0px"
	 viewBox="0 0 512 512" style="enable-background:new 0 0 512 512;" xml:space="preserve">
<g>
	<path style="fill:#07C2C9;" d="M502,502H385V162.242h76.121c22.577,0,40.879,18.302,40.879,40.879V502z"/>
	<path style="fill:#07C2C9;" d="M127,502H10V203.121c0-22.577,18.302-40.879,40.879-40.879H127V502z"/>
</g>
<g>
	<rect x="50" y="202.24" style="fill:#FFEEE7;" width="37" height="152.76"/>
	<rect x="425" y="202.24" style="fill:#FFEEE7;" width="37" height="152.76"/>
</g>
<rect x="127" y="10" style="fill:#006D87;" width="258" height="492"/>
<circle style="fill:#FFEEE7;" cx="256" cy="107.5" r="97.5"/>
<polygon style="fill:#FF455E;" points="310.747,84.338 279.157,84.338 279.157,52.748 232.843,52.748 232.843,84.338 
	201.253,84.338 201.253,130.652 232.843,130.652 232.843,162.242 279.157,162.242 279.157,130.652 310.747,130.652 "/>
<path d="M279.157,172.242h-46.314c-5.523,0-10-4.477-10-10v-21.59h-21.59c-5.523,0-10-4.477-10-10V84.338c0-5.523,4.477-10,10-10
	h21.59v-21.59c0-5.523,4.477-10,10-10h46.314c5.523,0,10,4.477,10,10v21.59h21.59c5.523,0,10,4.477,10,10v46.314
	c0,5.523-4.477,10-10,10h-21.59v21.59C289.157,167.765,284.68,172.242,279.157,172.242z M242.843,152.242h26.314v-21.59
	c0-5.523,4.477-10,10-10h21.59V94.338h-21.59c-5.523,0-10-4.477-10-10v-21.59h-26.314v21.59c0,5.523-4.477,10-10,10h-21.59v26.313
	h21.59c5.523,0,10,4.477,10,10L242.843,152.242L242.843,152.242z"/>
<rect x="208.13" y="423.67" style="fill:#FFEEE7;" width="95.75" height="78.33"/>
<path d="M461.121,152.242H395V10c0-5.523-4.477-10-10-10H127c-5.523,0-10,4.477-10,10v142.242H50.879
	C22.824,152.242,0,175.066,0,203.121V502c0,5.523,4.477,10,10,10h492c5.523,0,10-4.477,10-10V203.121
	C512,175.066,489.176,152.242,461.121,152.242z M343.495,107.495c0,48.245-39.25,87.495-87.495,87.495s-87.495-39.25-87.495-87.495
	S207.755,20,256,20S343.495,59.25,343.495,107.495z M20,203.121c0-17.027,13.852-30.879,30.879-30.879H117V492H20V203.121z M137,20
	h56.617c-27.291,19.514-45.112,51.463-45.112,87.495c0,59.273,48.222,107.495,107.495,107.495s107.495-48.222,107.495-107.495
	c0-36.033-17.821-67.981-45.112-87.495H375v472h-61.126v-68.333c0-5.523-4.477-10-10-10h-95.747c-5.523,0-10,4.477-10,10V492H137V20
	z M218.126,492v-58.333h75.747V492H218.126z M492,492h-97V172.242h66.121c17.027,0,30.879,13.852,30.879,30.879V492z"/>
<rect x="169.69" y="236" style="fill:#FFD14B;" width="70" height="60"/>
<path d="M239.691,305.998H169.69c-5.523,0-10-4.477-10-10v-60c0-5.523,4.477-10,10-10h70.001c5.523,0,10,4.477,10,10v60
	C249.691,301.521,245.214,305.998,239.691,305.998z M179.69,285.998h50.001v-40H179.69V285.998z"/>
<rect x="272.31" y="236" style="fill:#FFD14B;" width="70" height="60"/>
<path d="M342.31,305.998h-70.001c-5.523,0-10-4.477-10-10v-60c0-5.523,4.477-10,10-10h70.001c5.523,0,10,4.477,10,10v60
	C352.31,301.521,347.832,305.998,342.31,305.998z M282.309,285.998h50.001v-40h-50.001V285.998z"/>
<rect x="169.69" y="334.42" style="fill:#FFD14B;" width="70" height="60"/>
<path d="M239.691,404.415H169.69c-5.523,0-10-4.477-10-10v-60c0-5.523,4.477-10,10-10h70.001c5.523,0,10,4.477,10,10v60
	C249.691,399.939,245.214,404.415,239.691,404.415z M179.69,384.415h50.001v-40H179.69V384.415z"/>
<rect x="272.31" y="334.42" style="fill:#FFD14B;" width="70" height="60"/>
<path d="M342.31,404.415h-70.001c-5.523,0-10-4.477-10-10v-60c0-5.523,4.477-10,10-10h70.001c5.523,0,10,4.477,10,10v60
	C352.31,399.939,347.832,404.415,342.31,404.415z M282.309,384.415h50.001v-40h-50.001V384.415z"/>
<path d="M425,473.67c-0.65,0-1.31-0.06-1.95-0.19s-1.27-0.33-1.87-0.58c-0.61-0.25-1.19-0.55-1.73-0.92
	c-0.55-0.36-1.06-0.78-1.52-1.24s-0.88-0.97-1.24-1.52c-0.36-0.54-0.67-1.12-0.92-1.72c-0.25-0.61-0.45-1.24-0.57-1.88
	c-0.13-0.64-0.2-1.3-0.2-1.95c0-2.63,1.07-5.21,2.93-7.07c0.46-0.46,0.97-0.88,1.52-1.24c0.54-0.36,1.12-0.67,1.73-0.92
	c0.6-0.25,1.23-0.44,1.87-0.57c1.29-0.26,2.61-0.26,3.9,0c0.64,0.13,1.27,0.32,1.87,0.57c0.61,0.25,1.19,0.56,1.73,0.92
	c0.55,0.36,1.06,0.78,1.52,1.24c1.86,1.86,2.93,4.44,2.93,7.07c0,0.65-0.07,1.31-0.2,1.95c-0.12,0.64-0.32,1.27-0.57,1.88
	c-0.25,0.6-0.56,1.18-0.92,1.72c-0.36,0.55-0.78,1.06-1.24,1.52s-0.97,0.88-1.52,1.24c-0.54,0.37-1.12,0.67-1.73,0.92
	c-0.6,0.25-1.23,0.45-1.87,0.58C426.31,473.61,425.65,473.67,425,473.67z"/>
<path d="M462,192.242h-37c-5.523,0-10,4.477-10,10v224.834c0,5.523,4.477,10,10,10s10-4.477,10-10v-62.073h27
	c5.523,0,10-4.477,10-10V202.242C472,196.719,467.523,192.242,462,192.242z M452,345.004h-17V212.242h17V345.004z"/>
<path d="M50,473.67c-0.65,0-1.31-0.06-1.95-0.19s-1.27-0.33-1.87-0.58c-0.61-0.25-1.19-0.55-1.73-0.92
	c-0.55-0.36-1.06-0.78-1.52-1.24s-0.88-0.97-1.24-1.52c-0.36-0.54-0.67-1.12-0.92-1.72c-0.25-0.61-0.44-1.24-0.57-1.88
	s-0.2-1.3-0.2-1.95c0-2.63,1.07-5.21,2.93-7.07c0.46-0.46,0.97-0.88,1.52-1.24c0.54-0.36,1.12-0.67,1.73-0.92
	c0.6-0.25,1.23-0.44,1.87-0.57c3.25-0.66,6.7,0.41,9.02,2.73c1.86,1.86,2.93,4.44,2.93,7.07c0,0.65-0.07,1.31-0.2,1.95
	c-0.12,0.64-0.32,1.27-0.57,1.88c-0.25,0.6-0.56,1.18-0.92,1.72c-0.36,0.55-0.78,1.06-1.24,1.52C55.21,472.6,52.63,473.67,50,473.67
	z"/>
<path d="M87,192.242H50c-5.523,0-10,4.477-10,10v224.834c0,5.523,4.477,10,10,10s10-4.477,10-10v-62.073h27c5.523,0,10-4.477,10-10
	V202.242C97,196.719,92.523,192.242,87,192.242z M77,345.004H60V212.242h17V345.004z"/>
<g>
</g>
<g>
</g>
<g>
</g>
<g>
</g>
<g>
</g>
<g>
</g>
<g>
</g>
<g>
</g>
<g>
</g>
<g>
</g>
<g>
</g>
<g>
</g>
<g>
</g>
<g>
</g>
<g>
</g>
</svg>
