<?xml version="1.0" encoding="iso-8859-1"?>
<!-- Generator: Adobe Illustrator 19.0.0, SVG Export Plug-In . SVG Version: 6.00 Build 0)  -->
<svg version="1.1" id="Capa_1" xmlns="http://www.w3.org/2000/svg" xmlns:xlink="http://www.w3.org/1999/xlink" x="0px" y="0px"
	 viewBox="0 0 512 512" style="enable-background:new 0 0 512 512;" xml:space="preserve">
<g>
	<path style="fill:#FF5D5D;" d="M154,130.03L154,130.03c-11.046,0-20-8.954-20-20v-28h40v28C174,121.076,165.046,130.03,154,130.03z
		"/>
	<path style="fill:#FF5D5D;" d="M358,130.03L358,130.03c-11.046,0-20-8.954-20-20v-28h40v28C378,121.076,369.046,130.03,358,130.03z
		"/>
</g>
<g>
	<rect x="358" y="287.949" style="fill:#FFC66C;" width="144" height="48"/>
	<rect x="10" y="287.949" style="fill:#FFC66C;" width="144" height="48"/>
</g>
<path style="fill:#FEDA9B;" d="M134,165.954h244c13.255,0,24,10.745,24,24l0,0c0,13.255-10.745,24-24,24H134
	c-13.255,0-24-10.745-24-24l0,0C110,176.699,120.745,165.954,134,165.954z"/>
<rect x="236" y="213.96" style="fill:#FFC66C;" width="40" height="175.67"/>
<path style="fill:#FFB954;" d="M267.438,389.891h-22.621c-22.126,0-40.062,17.937-40.062,40.062l0,0H307.5l0,0
	C307.5,407.828,289.563,389.891,267.438,389.891z"/>
<path style="fill:#72D8FF;" d="M304,125.954h-96l0,0c0,22.091,17.909,40,40,40h16C286.091,165.954,304,148.046,304,125.954
	L304,125.954z"/>
<path d="M179.5,223.96c-2.63,0-5.21-1.07-7.07-2.93c-1.86-1.87-2.93-4.44-2.93-7.07c0-2.64,1.069-5.21,2.93-7.08
	c1.86-1.86,4.44-2.92,7.07-2.92s5.21,1.06,7.069,2.92c1.86,1.86,2.931,4.44,2.931,7.08c0,2.63-1.07,5.2-2.931,7.07
	C184.71,222.889,182.13,223.96,179.5,223.96z"/>
<path d="M502,119.996c-5.522,0-10,4.477-10,10v147.958H358c-5.522,0-10,4.477-10,10v48v94.014c0,5.523,4.478,10,10,10
	s10-4.477,10-10v-84.014h124v84.014c0,5.523,4.478,10,10,10s10-4.477,10-10v-94.014v-48V129.996
	C512,124.473,507.522,119.996,502,119.996z M368,325.954v-28h124v28H368z"/>
<path d="M154,277.954H20V129.996c0-5.523-4.478-10-10-10s-10,4.477-10,10v157.958v48v94.014c0,5.523,4.478,10,10,10s10-4.477,10-10
	v-84.014h124v84.014c0,5.523,4.478,10,10,10s10-4.477,10-10v-94.014v-48C164,282.431,159.522,277.954,154,277.954z M20,325.954v-28
	h124v28H20z"/>
<path d="M378,155.954h-10v-17.643c11.639-4.128,20-15.243,20-28.28v-28c0-5.523-4.478-10-10-10h-40c-5.522,0-10,4.477-10,10v28
	c0,13.036,8.361,24.152,20,28.28v17.643h-44.027c6.292-8.363,10.027-18.753,10.027-30c0-5.523-4.478-10-10-10h-96
	c-5.522,0-10,4.477-10,10c0,11.247,3.735,21.637,10.027,30H164v-17.643c11.639-4.128,20-15.243,20-28.28v-28c0-5.523-4.478-10-10-10
	h-40c-5.522,0-10,4.477-10,10v28c0,13.036,8.361,24.152,20,28.28v17.643h-10c-18.748,0-34,15.252-34,34c0,18.748,15.252,34,34,34
	h5.5c5.522,0,10-4.477,10-10c0-5.523-4.478-10-10-10H134c-7.72,0-14-6.28-14-14s6.28-14,14-14h114h16h114c7.72,0,14,6.28,14,14
	s-6.28,14-14,14H276h-40h-19.5c-5.522,0-10,4.477-10,10c0,5.523,4.478,10,10,10h9.5v159.621
	c-18.304,7.454-31.246,25.429-31.246,46.379c0,5.523,4.478,10,10,10H307.5c5.522,0,10-4.477,10-10
	c0-21.047-13.062-39.089-31.5-46.48v-159.52h92c18.748,0,34-15.252,34-34C412,171.206,396.748,155.954,378,155.954z M348,92.03h20
	v18c0,5.398-4.303,9.8-9.657,9.983c-0.115-0.004-0.227-0.017-0.343-0.017s-0.228,0.013-0.343,0.017
	c-5.354-0.183-9.657-4.584-9.657-9.983V92.03z M144,92.03h20v18c0,5.398-4.303,9.8-9.657,9.983
	c-0.115-0.004-0.227-0.017-0.343-0.017s-0.228,0.013-0.343,0.017c-5.354-0.183-9.657-4.584-9.657-9.983V92.03z M248,155.954
	c-13.037,0-24.159-8.359-28.286-20h72.572c-4.127,11.641-15.249,20-28.286,20H248z M295.79,419.954h-79.326
	c4.13-11.676,15.279-20.063,28.353-20.063h22.621C280.511,399.891,291.66,408.277,295.79,419.954z M266,379.621h-20V223.954h20
	V379.621z"/>
<g>
</g>
<g>
</g>
<g>
</g>
<g>
</g>
<g>
</g>
<g>
</g>
<g>
</g>
<g>
</g>
<g>
</g>
<g>
</g>
<g>
</g>
<g>
</g>
<g>
</g>
<g>
</g>
<g>
</g>
</svg>
