<?xml version="1.0" encoding="iso-8859-1"?>
<!-- Generator: Adobe Illustrator 19.0.0, SVG Export Plug-In . SVG Version: 6.00 Build 0)  -->
<svg version="1.1" id="Capa_1" xmlns="http://www.w3.org/2000/svg" xmlns:xlink="http://www.w3.org/1999/xlink" x="0px" y="0px"
	 viewBox="0 0 512 512" style="enable-background:new 0 0 512 512;" xml:space="preserve">
<g>
	<polygon style="fill:#95E7EE;" points="454.94,412.34 377.68,433.048 344.224,462.714 355.572,501.999 471.468,470.943 	"/>
	<polygon style="fill:#95E7EE;" points="134.319,433.048 57.059,412.34 41.031,470.943 156.926,501.999 167.775,462.714 	"/>
</g>
<path style="fill:#B55646;" d="M501.975,266.788v123.705l-44.065,31.956c-2.798-9.055-20.811-76.719-34.016-126.005h-0.01
	l-3.03-11.309c-4.679-17.498-16.128-32.406-31.806-41.465c-7.509-4.329-14.058-10.019-19.348-16.688v-0.01
	c-2.11-10.029,3.85-20.548,14.398-23.377c8.309-2.23,17.108,1.11,21.847,8.289l17.778,26.927
	c5.849,8.859,14.968,15.018,25.357,17.148L501.975,266.788z"/>
<polygon style="fill:#FEC652;" points="423.884,296.444 346.623,317.152 377.68,433.048 454.94,412.34 "/>
<path style="fill:#95E7EE;" d="M420.855,285.135c-4.679-17.498-16.128-32.406-31.806-41.465
	c-7.509-4.329-14.058-10.019-19.348-16.688v-0.01c-5.759-7.249-10.029-15.658-12.469-24.757l-13.378-49.944l-38.635,10.349
	l13.388,49.944c4.679,17.498,2.23,36.136-6.829,51.814c-7.659,13.268-10.589,28.657-8.479,43.675l43.325,9.099l77.261-20.707
	L420.855,285.135z"/>
<g>
	<path style="fill:#B55646;" d="M377.68,433.048c-2.86-10.669-13.818-16.998-24.487-14.138
		c10.555-2.834,17.016-13.675,14.138-24.497c-2.86-10.669-13.828-16.998-24.497-14.138c8.939-2.4,14.828-10.489,14.828-19.318
		c0-1.7-0.22-3.44-0.68-5.169c-2.86-10.669-13.828-17.008-24.497-14.148c10.669-2.86,16.998-13.818,14.138-24.487
		c-2.86-10.669-13.818-16.998-24.487-14.138l-18.838,5.039l-0.48,0.13c-10.555,2.834-17.016,13.675-14.138,24.497
		c2.86,10.669,13.818,16.998,24.487,14.138c-10.529,2.827-17.021,13.644-14.138,24.487c2.86,10.669,13.828,17.008,24.487,14.148
		c-10.486,2.818-17.033,13.599-14.138,24.487c2.86,10.669,13.828,16.998,24.497,14.138c-10.555,2.834-17.015,13.675-14.138,24.497
		c2.85,10.669,13.818,16.998,24.487,14.138l19.318-5.179C374.1,454.712,380.556,443.866,377.68,433.048z"/>
	
		<rect x="299.365" y="118.152" transform="matrix(0.2587 0.966 -0.966 0.2587 370.1826 -206.0813)" style="fill:#B55646;" width="39.993" height="39.993"/>
	
		<rect x="172.622" y="118.133" transform="matrix(-0.2587 0.966 -0.966 -0.2587 375.879 -12.1948)" style="fill:#B55646;" width="39.993" height="39.993"/>
</g>
<path style="fill:#95E7EE;" d="M200.221,264.378c-9.059-15.678-11.509-34.316-6.829-51.814l13.388-49.944l-38.635-10.349
	l-13.378,49.944c-2.44,9.099-6.709,17.508-12.468,24.757v0.01c-5.279,6.669-11.829,12.359-19.348,16.688
	c-15.678,9.059-27.127,23.967-31.806,41.465l-3.03,11.309l77.261,20.707l43.325-9.099
	C210.81,293.035,207.88,277.646,200.221,264.378z"/>
<path style="fill:#FFC9BF;" d="M209.18,308.183l-0.48-0.13l-18.838-5.039c-10.669-2.86-21.627,3.47-24.487,14.138
	c-2.872,10.799,3.559,21.646,14.138,24.487c-10.669-2.86-21.637,3.48-24.487,14.148c-2.881,10.833,3.6,21.658,14.138,24.487
	c-12.721-3.41-25.187,6.209-25.187,19.328c0,8.829,5.899,16.908,14.828,19.308c-10.659-2.86-21.627,3.47-24.487,14.138
	c-2.877,10.819,3.58,21.664,14.138,24.487l19.318,5.179c10.669,2.86,21.637-3.47,24.497-14.138
	c2.851-10.721-3.524-21.644-14.148-24.497c10.669,2.86,21.637-3.47,24.497-14.138c2.872-10.799-3.559-21.646-14.138-24.487
	c10.669,2.86,21.627-3.48,24.487-14.148c2.88-10.832-3.599-21.657-14.138-24.487c10.669,2.86,21.627-3.47,24.487-14.138
	C226.195,321.862,219.74,311.017,209.18,308.183z"/>
<polygon style="fill:#FEC652;" points="88.115,296.444 57.059,412.34 134.319,433.048 165.375,317.152 "/>
<path style="fill:#FFC9BF;" d="M127.9,203.595c10.549,2.83,16.508,13.348,14.398,23.377v0.01
	c-5.279,6.669-11.829,12.359-19.348,16.688c-15.678,9.059-27.127,23.967-31.806,41.465l-3.03,11.309h-0.01
	c-4.413,16.593-16.266,60.603-33.886,126.105l-44.195-32.056V266.788l52.894-10.829c10.389-2.13,19.508-8.289,25.357-17.148
	l17.778-26.927C110.792,204.705,119.591,201.366,127.9,203.595z"/>
<path d="M432.068,233.302l-17.777-26.926c-7.124-10.79-20.299-15.79-32.782-12.438c-5.478,1.47-10.203,4.376-13.875,8.206
	c-0.263-0.832-0.516-1.669-0.743-2.516c-4.399-16.423-19.355-72.255-23.727-88.579c-1.428-5.333-6.9-8.501-12.246-7.071
	l-38.635,10.349c-5.333,1.429-8.5,6.911-7.07,12.246c0.027,0.1,23.695,88.42,23.736,88.575c4.025,15.051,1.955,30.758-5.829,44.232
	c-7.394,12.808-10.98,27.591-10.399,42.331c-11.293,6.701-17.255,20.177-13.697,33.559c1.932,7.205,6.368,13.306,12.569,17.346
	c-3.244,6.396-4.204,13.809-2.22,21.278c1.931,7.206,6.369,13.308,12.572,17.352c-3.284,6.469-4.189,13.893-2.224,21.284
	c1.989,7.418,6.612,13.432,12.588,17.33c-3.243,6.383-4.22,13.813-2.232,21.295c3.418,12.794,14.529,21.294,26.805,22.171
	l9.084,31.447c1.517,5.25,6.95,8.289,12.194,6.883l115.896-31.056c2.58-0.691,4.775-2.386,6.099-4.705
	c1.322-2.32,1.662-5.073,0.943-7.645l-11.688-41.79l38.434-27.874c2.594-1.881,4.129-4.89,4.129-8.094V266.788
	c0-4.749-3.341-8.843-7.993-9.796l-52.891-10.828C443.237,244.553,436.482,239.986,432.068,233.302z M442.697,405.27l-59.609,15.977
	c-2.241-3.256-5.082-6.001-8.329-8.119c3.295-6.488,4.191-13.917,2.229-21.303c-1.932-7.209-6.373-13.312-12.58-17.352
	c3.278-6.465,4.184-13.925,2.232-21.274c-1.988-7.412-6.6-13.431-12.568-17.332c1.796-3.538,2.855-7.333,3.155-11.205l59.588-15.971
	C419.242,317.748,442.09,403.005,442.697,405.27z M305.081,317.945c0.101-0.018,19.544-5.246,19.645-5.274
	c5.323-1.429,10.813,1.745,12.241,7.069c1.43,5.336-1.728,10.809-7.068,12.241c-0.001,0-0.003,0.001-0.004,0.001l-19.316,5.178
	c-5.323,1.43-10.812-1.744-12.234-7.049C296.909,324.706,300.061,319.495,305.081,317.945z M315.754,356.477
	c0.001,0,0.001,0,0.002-0.001c0.001,0,0.003-0.001,0.004-0.001l19.314-5.177c5.328-1.431,10.822,1.748,12.246,7.059
	c1.446,5.431-1.819,10.85-7.078,12.26c-0.002,0-0.003,0.001-0.005,0.002l-19.313,5.178c-5.341,1.434-10.811-1.766-12.23-7.06
	C307.217,363.187,310.585,357.867,315.754,356.477z M326.105,395.111L326.105,395.111c0.001,0,0.001,0,0.002,0c0,0,0,0,0.001,0
	l19.315-5.178c5.428-1.455,10.847,1.834,12.246,7.049c1.482,5.573-1.914,10.887-7.067,12.271c-0.001,0-0.001,0.001-0.002,0.001
	l-19.313,5.167c-5.352,1.437-10.825-1.756-12.245-7.049C317.568,401.819,320.937,396.5,326.105,395.111z M352.032,305.35
	c-6.999-10.171-19.895-15.368-32.479-11.997l-6.803,1.82c0.531-9.039,3.141-17.919,7.686-25.794
	c10.455-18.095,13.235-39.189,7.83-59.406l-10.8-40.284l19.317-5.174l10.792,40.287c5.29,19.735,18.271,37.029,36.472,47.523
	c13.488,7.793,23.131,20.362,27.151,35.395l0.442,1.652L352.032,305.35z M326.434,125.882l5.175,19.319l-19.319,5.174l-5.174-19.319
	L326.434,125.882z M329.4,446.007c-1.479-5.563,1.905-10.885,7.06-12.27h0.002c0,0,0.001,0,0.002,0h0.001l19.317-5.168
	c5.33-1.429,10.81,1.753,12.238,7.059c1.47,5.542-1.891,10.868-7.067,12.251l-19.316,5.179
	C336.299,454.489,330.82,451.323,329.4,446.007z M362.458,489.803l-5.798-20.072l9.464-2.538
	c12.342-3.299,21.17-14.065,22.147-26.633l59.625-15.981c0.19,0.948,0.521,1.876,0.996,2.759l10.226,36.563L362.458,489.803z
	 M491.976,385.392l-28.309,20.53l-2.208-7.895c-0.003-0.013-0.009-0.024-0.012-0.037c-19.689-73.476-11.352-42.354-30.933-115.439
	c-5.398-20.19-18.349-37.074-36.472-47.543c-5.581-3.218-10.532-7.289-14.749-12.126c0.027-4.042,2.507-8.319,7.397-9.631
	c4.154-1.112,8.539,0.548,10.912,4.141l17.777,26.927c7.354,11.14,18.61,18.752,31.695,21.435l44.901,9.192v110.446H491.976z"/>
<path d="M4.154,398.587l38.601,27.999l-11.373,41.728c-1.456,5.341,1.711,10.854,7.06,12.288l115.896,31.056
	c5.281,1.417,10.758-1.681,12.227-6.997l8.655-31.344c12.222-0.917,23.286-9.378,26.715-22.172
	c1.859-6.987,1.202-14.498-2.248-21.286c5.978-3.901,10.606-9.921,12.596-17.349c1.916-7.203,1.131-14.659-2.239-21.286
	c5.973-3.902,10.597-9.923,12.587-17.349c1.974-7.428,1.026-14.851-2.225-21.259c6.2-4.04,10.638-10.143,12.572-17.366
	c3.575-13.448-2.495-26.897-13.701-33.544c0.58-14.738-3.007-29.519-10.402-42.329c-7.782-13.47-9.853-29.177-5.828-44.223
	c0.04-0.151,23.479-87.615,23.737-88.581c0.687-2.562,0.327-5.291-0.999-7.587c-1.326-2.297-3.511-3.973-6.071-4.658l-38.635-10.349
	c-5.337-1.427-10.817,1.738-12.246,7.071c-2.178,8.131-21.145,78.939-23.726,88.576c-0.228,0.849-0.481,1.686-0.745,2.519
	c-3.673-3.831-8.396-6.737-13.873-8.206c-12.48-3.351-25.661,1.647-32.782,12.437L79.93,233.302
	c-4.412,6.684-11.168,11.252-19.019,12.861L8.019,256.992c-4.652,0.953-7.993,5.046-7.993,9.796v123.705
	C0.025,393.696,1.56,396.706,4.154,398.587z M95.184,308.691l59.601,15.974c0.309,3.968,1.414,7.748,3.154,11.18
	c-6.207,4.045-10.646,10.152-12.574,17.374c-1.949,7.324-1.07,14.76,2.224,21.256c-6.206,4.04-10.647,10.144-12.582,17.369
	c-1.968,7.402-1.039,14.83,2.228,21.269c-3.326,2.167-6.143,4.925-8.339,8.129L69.301,405.27
	C69.758,403.564,91.192,323.585,95.184,308.691z M150.138,233.188c0.048-0.061,0.088-0.126,0.134-0.188
	c0.054-0.069,0.104-0.14,0.157-0.209c0.01-0.014,0.021-0.026,0.03-0.04c6.517-8.32,11.221-17.716,13.964-27.949l10.792-40.286
	l19.316,5.174l-10.8,40.289c-5.404,20.211-2.624,41.305,7.829,59.396c4.546,7.876,7.157,16.759,7.688,25.798l-6.799-1.82
	c-12.821-3.437-25.642,1.978-32.5,11.991l-59.591-15.971c0.378-0.783,4.321-23.6,27.579-37.038
	C136.525,247.392,143.994,240.95,150.138,233.188z M192.963,407.352c-1.43,5.334-6.908,8.503-12.251,7.069
	c-0.001,0-0.002,0-0.002-0.001h-0.001l-19.311-5.167c-5.179-1.395-8.54-6.732-7.072-12.252c1.43-5.333,6.907-8.498,12.246-7.07
	h0.001c0.002,0,0.004,0.001,0.006,0.001l19.312,5.178C191.068,396.5,194.431,401.833,192.963,407.352z M203.312,368.716
	c-1.429,5.33-6.919,8.505-12.241,7.079c-0.001,0-0.003-0.001-0.004-0.001l-19.308-5.177h-0.001
	c-5.179-1.39-8.541-6.719-7.071-12.249c1.426-5.331,6.898-8.5,12.234-7.072h0.001c0.002,0,0.004,0.001,0.006,0.001l19.313,5.177
	C201.417,357.865,204.782,363.198,203.312,368.716z M213.66,330.092c-1.429,5.334-6.9,8.502-12.24,7.068
	c-0.001,0-0.003-0.001-0.004-0.001l-19.309-5.176h-0.001c-5.168-1.388-8.543-6.711-7.072-12.241v-0.001v-0.001
	c1.42-5.298,6.862-8.509,12.245-7.066c0.101,0.027,19.55,5.257,19.651,5.275C211.925,319.48,215.093,324.706,213.66,330.092z
	 M149.929,489.773l-96.611-25.889l10.175-37.334c0.276-0.641,0.484-1.3,0.618-1.967l59.618,15.979
	c0.978,12.568,9.805,23.334,22.14,26.631l9.587,2.571L149.929,489.773z M182.614,445.988c-1.431,5.337-6.911,8.5-12.25,7.069
	l-19.325-5.181c-5.164-1.381-8.531-6.705-7.06-12.249c1.43-5.312,6.887-8.494,12.242-7.058l19.311,5.167
	C180.798,435.149,184.052,440.575,182.614,445.988z M185.566,125.882l19.318,5.174l-5.174,19.319l-19.319-5.174L185.566,125.882z
	 M20.023,274.947l44.903-9.192c13.083-2.683,24.339-10.295,31.692-21.434l17.779-26.928c2.371-3.591,6.754-5.256,10.912-4.139
	c4.889,1.312,7.37,5.591,7.396,9.634c-4.21,4.833-9.16,8.903-14.758,12.127c-18.114,10.467-31.063,27.35-36.462,47.535
	c-63.81,238.13-5.237,19.539-33.11,123.411l-28.352-20.567V274.947z"/>
<path d="M256.004,55.993c5.521,0,9.999-4.476,9.999-9.999V9.999c0-5.522-4.477-9.999-9.999-9.999s-9.999,4.476-9.999,9.999v35.996
	C246.006,51.517,250.483,55.993,256.004,55.993z"/>
<path d="M203.082,28.925c-3.906-3.904-10.235-3.904-14.141,0c-3.905,3.905-3.905,10.236,0,14.141l19.998,19.998
	c3.907,3.905,10.235,3.904,14.141,0c3.905-3.905,3.905-10.236,0-14.141L203.082,28.925z"/>
<path d="M308.927,28.925l-19.998,19.998c-3.905,3.905-3.905,10.236,0,14.141c3.907,3.905,10.235,3.904,14.141,0l19.998-19.998
	c3.905-3.905,3.905-10.236,0-14.141C319.162,25.021,312.833,25.021,308.927,28.925z"/>
<g>
</g>
<g>
</g>
<g>
</g>
<g>
</g>
<g>
</g>
<g>
</g>
<g>
</g>
<g>
</g>
<g>
</g>
<g>
</g>
<g>
</g>
<g>
</g>
<g>
</g>
<g>
</g>
<g>
</g>
</svg>
